<mxfile host="app.diagrams.net" agent="Mozilla/5.0 (Windows NT 10.0; Win64; x64) AppleWebKit/537.36 (KHTML, like Gecko) Chrome/138.0.0.0 Safari/537.36" version="28.1.1">
  <diagram name="Page-1" id="KpZsXqArk_7st1ySy0vw">
    <mxGraphModel dx="1457" dy="764" grid="1" gridSize="10" guides="1" tooltips="1" connect="1" arrows="1" fold="1" page="1" pageScale="1" pageWidth="827" pageHeight="1169" math="0" shadow="0">
      <root>
        <mxCell id="0" />
        <mxCell id="1" parent="0" />
        <mxCell id="z7MhCoosBLMzNFp4BRqQ-1" value="&lt;font style=&quot;font-size: 30px;&quot;&gt;VM 1&lt;/font&gt;" style="rounded=1;whiteSpace=wrap;html=1;arcSize=0;fillColor=#b0e3e6;strokeColor=#0e8088;" vertex="1" parent="1">
          <mxGeometry x="30" y="20" width="240" height="240" as="geometry" />
        </mxCell>
        <mxCell id="z7MhCoosBLMzNFp4BRqQ-2" value="&lt;font style=&quot;font-size: 30px;&quot;&gt;VM 2&lt;/font&gt;" style="rounded=1;whiteSpace=wrap;html=1;arcSize=0;fillColor=#b0e3e6;strokeColor=#0e8088;" vertex="1" parent="1">
          <mxGeometry x="560" y="20" width="240" height="240" as="geometry" />
        </mxCell>
        <mxCell id="z7MhCoosBLMzNFp4BRqQ-3" value="Administrateur&lt;div&gt;&lt;br&gt;&lt;/div&gt;" style="shape=umlActor;verticalLabelPosition=bottom;verticalAlign=top;html=1;outlineConnect=0;" vertex="1" parent="1">
          <mxGeometry x="260" y="450" width="30" height="60" as="geometry" />
        </mxCell>
        <mxCell id="z7MhCoosBLMzNFp4BRqQ-5" value="" style="shape=flexArrow;endArrow=classic;startArrow=classic;html=1;rounded=0;exitX=1;exitY=0.5;exitDx=0;exitDy=0;" edge="1" parent="1" source="z7MhCoosBLMzNFp4BRqQ-1" target="z7MhCoosBLMzNFp4BRqQ-2">
          <mxGeometry width="100" height="100" relative="1" as="geometry">
            <mxPoint x="214" y="59.5" as="sourcePoint" />
            <mxPoint x="360" y="59.5" as="targetPoint" />
          </mxGeometry>
        </mxCell>
        <mxCell id="z7MhCoosBLMzNFp4BRqQ-6" value="TCP:514" style="edgeLabel;html=1;align=center;verticalAlign=middle;resizable=0;points=[];fontSize=15;" vertex="1" connectable="0" parent="z7MhCoosBLMzNFp4BRqQ-5">
          <mxGeometry x="0.0836" y="-4" relative="1" as="geometry">
            <mxPoint x="-19" y="-24" as="offset" />
          </mxGeometry>
        </mxCell>
        <mxCell id="z7MhCoosBLMzNFp4BRqQ-7" value="&lt;font style=&quot;font-size: 18px;&quot;&gt;rsyslog&lt;/font&gt;" style="rounded=0;whiteSpace=wrap;html=1;fillColor=#647687;fontColor=#ffffff;strokeColor=#314354;" vertex="1" parent="1">
          <mxGeometry x="40" y="210" width="100" height="40" as="geometry" />
        </mxCell>
        <mxCell id="z7MhCoosBLMzNFp4BRqQ-8" value="BDD MySQL" style="shape=cylinder3;whiteSpace=wrap;html=1;boundedLbl=1;backgroundOutline=1;size=15;fillColor=#1ba1e2;strokeColor=#006EAF;fontColor=#ffffff;" vertex="1" parent="1">
          <mxGeometry x="570" y="30" width="50" height="70" as="geometry" />
        </mxCell>
        <mxCell id="z7MhCoosBLMzNFp4BRqQ-10" value="App" style="shape=cylinder3;whiteSpace=wrap;html=1;boundedLbl=1;backgroundOutline=1;size=15;fillColor=#60a917;strokeColor=#2D7600;fontColor=#ffffff;" vertex="1" parent="1">
          <mxGeometry x="45" y="35" width="70" height="60" as="geometry" />
        </mxCell>
        <mxCell id="z7MhCoosBLMzNFp4BRqQ-12" value="&lt;font style=&quot;font-size: 15px;&quot;&gt;rsyslog&lt;/font&gt;&lt;div&gt;&lt;font style=&quot;font-size: 15px;&quot;&gt;logrotate&lt;/font&gt;&lt;/div&gt;" style="rounded=0;whiteSpace=wrap;html=1;fillColor=#647687;fontColor=#ffffff;strokeColor=#314354;" vertex="1" parent="1">
          <mxGeometry x="570" y="200" width="110" height="50" as="geometry" />
        </mxCell>
        <mxCell id="z7MhCoosBLMzNFp4BRqQ-13" value="&lt;font style=&quot;font-size: 25px;&quot;&gt;PC - Serveur Web&lt;/font&gt;" style="whiteSpace=wrap;html=1;aspect=fixed;fillColor=#1ba1e2;fontColor=#ffffff;strokeColor=#006EAF;" vertex="1" parent="1">
          <mxGeometry x="560" y="360" width="240" height="240" as="geometry" />
        </mxCell>
        <mxCell id="z7MhCoosBLMzNFp4BRqQ-14" value="&lt;font style=&quot;font-size: 15px;&quot;&gt;Page HTML/PHP&lt;/font&gt;&lt;div&gt;&lt;font style=&quot;font-size: 15px;&quot;&gt;Service Apache&lt;/font&gt;&lt;/div&gt;" style="rounded=0;whiteSpace=wrap;html=1;" vertex="1" parent="1">
          <mxGeometry x="608.75" y="520" width="142.5" height="60" as="geometry" />
        </mxCell>
        <mxCell id="z7MhCoosBLMzNFp4BRqQ-15" value="" style="shape=flexArrow;endArrow=classic;html=1;rounded=0;entryX=0.75;entryY=0;entryDx=0;entryDy=0;exitX=0.75;exitY=1;exitDx=0;exitDy=0;" edge="1" parent="1" source="z7MhCoosBLMzNFp4BRqQ-2" target="z7MhCoosBLMzNFp4BRqQ-13">
          <mxGeometry width="50" height="50" relative="1" as="geometry">
            <mxPoint x="640" y="310" as="sourcePoint" />
            <mxPoint x="690" y="260" as="targetPoint" />
          </mxGeometry>
        </mxCell>
        <mxCell id="z7MhCoosBLMzNFp4BRqQ-19" value="TCP:3306" style="edgeLabel;html=1;align=center;verticalAlign=middle;resizable=0;points=[];fontSize=15;" vertex="1" connectable="0" parent="z7MhCoosBLMzNFp4BRqQ-15">
          <mxGeometry x="-0.1485" y="1" relative="1" as="geometry">
            <mxPoint x="-61" y="8" as="offset" />
          </mxGeometry>
        </mxCell>
        <mxCell id="z7MhCoosBLMzNFp4BRqQ-18" value="&lt;font style=&quot;font-size: 15px;&quot;&gt;Connecteur MySQL (mysqli)&lt;/font&gt;" style="rounded=0;whiteSpace=wrap;html=1;fillColor=#647687;fontColor=#ffffff;strokeColor=#314354;" vertex="1" parent="1">
          <mxGeometry x="620" y="380" width="115" height="40" as="geometry" />
        </mxCell>
        <mxCell id="z7MhCoosBLMzNFp4BRqQ-20" value="" style="shape=flexArrow;endArrow=classic;html=1;rounded=0;exitX=0.25;exitY=0;exitDx=0;exitDy=0;entryX=0.25;entryY=1;entryDx=0;entryDy=0;" edge="1" parent="1" source="z7MhCoosBLMzNFp4BRqQ-13" target="z7MhCoosBLMzNFp4BRqQ-2">
          <mxGeometry width="50" height="50" relative="1" as="geometry">
            <mxPoint x="590" y="320" as="sourcePoint" />
            <mxPoint x="640" y="270" as="targetPoint" />
          </mxGeometry>
        </mxCell>
        <mxCell id="z7MhCoosBLMzNFp4BRqQ-21" value="" style="shape=flexArrow;endArrow=classic;html=1;rounded=0;exitX=0;exitY=0.5;exitDx=0;exitDy=0;" edge="1" parent="1" source="z7MhCoosBLMzNFp4BRqQ-13">
          <mxGeometry width="50" height="50" relative="1" as="geometry">
            <mxPoint x="380" y="480" as="sourcePoint" />
            <mxPoint x="320" y="480" as="targetPoint" />
          </mxGeometry>
        </mxCell>
        <mxCell id="z7MhCoosBLMzNFp4BRqQ-24" value="TCP:80/443" style="text;html=1;align=center;verticalAlign=middle;resizable=0;points=[];autosize=1;strokeColor=none;fillColor=none;fontSize=15;" vertex="1" parent="1">
          <mxGeometry x="380" y="450" width="100" height="30" as="geometry" />
        </mxCell>
      </root>
    </mxGraphModel>
  </diagram>
</mxfile>
